<?xml version="1.0" encoding="utf-8"?>
<!-- Generator: Adobe Illustrator 23.0.6, SVG Export Plug-In . SVG Version: 6.00 Build 0)  -->
<svg version="1.1" id="Layer_1" xmlns="http://www.w3.org/2000/svg" xmlns:xlink="http://www.w3.org/1999/xlink" x="0px" y="0px"
	 width="864px" height="864px" viewBox="0 0 864 864" enable-background="new 0 0 864 864" xml:space="preserve">
<g>
	<path d="M801.0708,388.157c-3.1147,3.7904-4.0156,7.3556-6.605,11.4462c-2.552,4.053-5.7043,7.0554-8.519,10.8082
		c-23.0049,30.6233-20.4905,29.1597-51.8643,59.145c-21.6541,20.6782-7.5435,14.4109-42.595,32.3121
		c-22.1418,11.2961-52.8777,23.005-74.7195,36.2901c-29.1221,17.676-23.0049,15.9872-54.2661,10.508
		c-12.3469-2.1766-22.1418-2.5895-34.6765-1.4261c-23.6428,2.1391-45.522,1.3135-69.0149,0.5629
		c-23.4553-0.713-43.7959,0.3002-66.7632-6.8302c-24.5437-7.6183-28.7471-11.5588-44.4714-30.5858
		c12.009-2.3268,49.7253,5.179,65.9377,5.3666c27.696,0.2627,73.6309-1.7639,100.9893-9.0444
		c15.4993-4.1281,64.1362-25.8947,78.5098-33.7006c15.5742-8.4814,32.387-16.0622,46.6104-26.908
		c14.0356-10.7332,27.7336-21.2036,41.6943-31.9743c26.5325-20.4906,49.2749-50.6636,72.6177-75.6951
		c16.062-17.1881,21.0908-19.4023,31.4863-42.032c7.8435-17.0004,13.0225-38.0915,17.0005-56.518
		c5.2539-24.3185,4.4282-37.7162-6.7927-59.9706c-10.6956-21.2411-9.3445-26.6828-30.3606-44.4338
		c-7.5806-6.4174-36.7029-25.1441-45.3345-28.1464c-21.2412-7.3181-45.522-4.2407-67.5137-3.3026
		c-26.3828,1.1259-94.1216,18.2389-118.853,29.3849c-14.1858-18.2014-28.5591-27.8087-48.1492-40.756
		c-9.2319-6.1547-18.3137-13.2852-29.4973-15.5369c-12.7222-2.5519-25.4067-5.5167-37.7539-0.8632
		c-17.7134,6.6801-36.3276,29.0471-44.959,45.297c-4.2031,7.881-14.0356,20.3029-16.9629,28.2214
		c-3.2275,8.7441-8.7817,23.9807-14.9741,30.4732c-23.9431-0.2628-64.624-0.6005-88.2295-3.7529
		c-12.1968-1.6138-17.7886-0.3378-29.1973-0.2252c-2.9272-5.2916-3.7527-8.4814-5.8545-13.773l-20.4905-41.3564
		c-8.7065-14.5611-24.8064-34.0759-40.9436-40.2681c-16.7754-6.4549-48.0366,3.2275-62.7852,12.9473
		c-26.0073,17.1881-55.6924,68.0018-69.6907,94.1967c-10.0576,18.8394-8.9692,45.7849,13.4353,54.3788
		c26.4202,10.1702,25.7446,12.1592,55.5046-11.221c6.1548-4.8412,17.4885-13.5103,22.6296-18.6892
		c7.5435-7.5057,11.0334-16.7377,19.1396-22.2545c48.562,19.7776,21.9541,28.7469,6.7551,64.9244
		c-11.6714,27.8087-18.614,68.4896-13.4727,98.2122c3.0022,17.4883,1.6511,35.2018,3.3777,53.3656l9.6821,76.7834
		c1.6138,10.2078,0.7881,18.1263,1.9517,27.696c1.989,16.5501,7.0552,34.226,7.3179,50.8137l5.7795,50.9637
		c6.0796,35.6521,10.0952,121.8552,21.0535,153.1165c4.5786,13.0599,12.4595,30.2855,29.9478,21.8416
		c18.7642-9.0443,27.8086-63.9486,32.2747-83.8011c3.6401-15.9872,4.8411-29.1973,17.4883-40.1556
		c29.0845,6.7177,21.6541,63.5735,28.6343,104.7422c2.0266,12.1218,12.8347,24.9189,25.3318,14.561
		c22.9673-19.1019,21.729-35.0891,33.5879-59.295c7.2805-14.8988,6.4551-16.1373,18.314-28.1464
		c7.2805-7.3931,19.3271-16.4751,30.0229-16.5126c7.6558-0.0375,15.0488-1.7263,21.9165-1.1635
		c14.1108,1.126,51.114,0.6006,57.3813,9.8325c9.4194,13.8105-2.1768,59.783,7.9185,82.4878
		c11.0708,24.9939,35.3894,16.325,46.1226-14.5236c9.2695-26.7579,4.8037-70.4036,21.4663-71.4543
		c17.4507,16.3624,14.7485,51.4141,21.729,74.0813c11.0708,35.8022,31.7866,26.1199,48.7495,1.5387
		c14.8989-21.6541,21.0911-44.2086,25.7446-69.7656c8.7817-48.4868-0.0752-53.2153-4.6909-85.7527
		c37.0405-13.6604,66.8757-25.0315,99.7131-47.6612c20.7534-14.3359,59.145-54.4164,72.7678-75.6201
		C859.8779,406.2833,858.1892,318.7292,801.0708,388.157z M380.0005,125.87c33.3254-55.242,50.7388-46.5729,98.0996-23.3427
		c14.7864,7.2805,11.2961,5.3666,23.0051,15.7244c5.4417,4.8036,16.0623,13.773,18.2014,20.5281
		c-14.3735,5.0663-57.5688,26.6077-64.887,21.1285c-5.967-4.5034-22.2168-16.8878-30.248-14.1858
		c-11.8589,3.978,4.0156,9.0069,6.9802,10.2078c3.678,1.4261,9.8325,7.2055,12.2344,9.8701
		c-3.49,2.1766-35.0142,8.6691-41.8442,9.945c-17.4883,3.3026-28.6343,4.2407-46.4978,4.4659
		C355.8323,167.189,372.7576,137.8792,380.0005,125.87z M157.6816,188.1299c-4.6912-4.0156-13.623-5.967-17.1882-9.4197
		c4.541-6.5675,9.1946-12.1217,7.9187-20.4155c-0.4131-2.7771,0.1123-1.1259-0.9009-2.702
		c-6.2297,1.0508-15.762,15.0864-18.9519,20.7532c-9.6448,17.038-40.0803,48.1116-57.6814,58.5446
		c-20.7908,12.3093-45.447-5.254-42.5947-28.6343c2.3267-19.027,14.1858-34.7515,24.5061-50.1381
		c16.625-24.7313,56.6306-71.9047,90.2561-64.4741c29.2722,6.4924,63.3105,57.231,70.4785,84.5143
		c-5.9294,8.0311-13.5103,5.7419-22.6296,12.2343c-7.1304,5.0288-13.1726,10.6205-19.5898,14.7487
		C163.2732,199.5386,162.6353,192.3706,157.6816,188.1299z M140.1558,323.5704c4.8411-46.3102,5.1038-37.0782,19.6274-79.8607
		c21.2786-62.7853,83.3508-59.7079,137.6172-53.3656c34.4136,4.0156,53.9285,4.5034,88.417-0.7131
		c15.1616-2.2892,28.1089-0.9006,42.8577-6.1922c12.4971-4.5034,24.8816-9.2695,37.7913-12.572
		c45.4473-11.5963,93.1084-34.864,150.5271-45.5972c38.3542-7.1304,45.5972-14.1483,88.2295-9.8325
		c-2.3267,7.4682-21.1287,24.4311-21.0159,40.8686c0.3376,38.054,16.1748,63.6859,52.0144,76.5582
		c7.3933,2.627,17.3381,4.8036,25.1067,7.168c7.6934,2.3643,16.1748,6.1922,23.9058,8.1061
		c2.1016,13.21-0.1877,11.0709-3.8281,23.0425c-8.031,26.27-9.9824,36.1024-30.9985,57.2686
		c-8.519,8.594-21.6162,19.102-29.8726,29.4974c-3.7905,4.7286-10.7708,9.7574-15.3491,14.2983
		c-5.5168,5.5167-8.2563,10.5455-14.8989,16.1373c-7.7686,6.53-8.519,9.157-18.877,10.8458
		c-33.9634,5.5167-30.6606,0.5629-77.4963,12.7972c-26.3826,6.9053-93.5212,4.3533-102.7532,11.5588
		c0.4128,9.6073,9.0444,5.967,16.5876,5.4417c7.5432-0.4879,15.6118-0.7881,23.1926-1.3885
		c14.9739-1.2385,31.2988-2.7771,46.4604-3.8654l86.2405-12.8348c-25.1816,27.8462-89.8059,58.2067-124.97,73.6685
		c-50.8887,22.3295-120.7295,19.6274-174.658,12.2343c-45.8975-6.2673-38.2415-2.1767-81.7371-17.7135
		c-46.1978-16.475-92.8457-30.5107-122.8687-75.9953C141.0188,375.2472,136.6279,357.6463,140.1558,323.5704z M629.5278,692.7761
		c-4.3909,30.4357-14.0356,55.2795-32.7625,79.4855l-11.8215,0.3754c-9.6821-18.0138-10.9207-36.7781-14.561-56.4805
		c-1.7263-9.3822-4.8037-35.7648-14.3359-39.7428c-2.4019-0.9757-11.6338-4.4283-13.6978-4.5785
		c-15.8372-1.1259-20.8284,35.6146-23.5679,46.9858c-4.4285,18.614-2.8147,38.9921-14.7488,54.9042
		c-8.4441,0.4503-8.7068,0.713-11.4087-6.9427c-8.8943-25.1067-5.4792-30.9985-7.2805-49.6128
		c-2.627-26.9454,6.7175-39.0671-27.6587-45.5221c-10.3953-1.9515-59.5952-4.691-68.6021-2.3644
		c-21.3914,5.5543-32.1245,13.7731-45.2219,30.811c-5.2539,6.8302-19.1394,42.5574-22.7048,51.9771
		c-8.894,23.2302-23.7554,39.9678-27.4707,1.9514c-1.1636-11.7089-1.0508-23.718-2.252-35.0516l-3.7527-35.014
		c-3.5652-17.9011-17.6008-41.8069-38.8796-28.5217c-3.7529,2.3267-11.9341,18.2388-14.2607,23.0801
		c-10.4705,21.5413-8.1438,37.0405-14.261,60.5334c-2.064,7.8435-5.2163,24.5061-8.031,30.6609
		c-4.4285,9.5697-14.9739,15.8745-21.6541,4.9163c-3.4526-5.7043-6.7927-23.7932-7.7683-30.886l-6.3423-50.3634
		c-0.9009-6.0421-0.1501-12.422-1.0508-18.6141c-5.2542-36.1775-5.2542-23.9807-7.168-64.9995
		c-0.563-11.8214-1.989-22.9674-2.8523-34.7513l-9.4946-66.4255c-7.4307-45.0718-9.6074-46.085-13.3601-98.6625
		c38.4292,36.4778,88.2671,66.2755,139.3059,81.1367c17.0378,4.9913,23.4929,10.508,42.7073,12.8348
		c12.5347,1.5386,20.866,19.1771,28.522,28.2965c10.6204,12.6471,20.8657,15.199,35.9897,19.4398
		c18.5015,5.1789,55.2419,4.5784,76.1455,4.9537c8.8191,0.1876,18.3513,1.7639,26.9077,1.2385
		c25.7446-1.6138,72.2427,5.1039,98.25,11.859c10.8457,2.8146,26.0823,15.4993,32.1992,24.6563
		C637.3713,616.5182,633.1682,667.6321,629.5278,692.7761z M755.2109,529.3769c-17.3757,16.6251-7.8435,10.3578-33.4756,25.9323
		c-22.7798,13.8105-11.7837,9.5698-40.2305,20.4155c-57.0059,21.7289-42.4824,13.0599-60.5334-2.9272
		c-4.616-4.0906-15.0491-10.3579-17.5259-13.3977c22.9299-12.7972,30.7358-12.1968,51.8269-25.4068
		c7.0554-4.4284,10.583-4.4659,17.3381-8.4439c5.3291-3.1524,10.8457-6.4925,16.2498-9.6074
		c5.4792-3.2274,11.9717-4.8787,17.376-8.4439c10.8457-7.168,48.6743-38.4292,56.5178-47.999
		c7.4307-9.0819,15.8748-19.2147,23.5681-28.0339c8.2937-9.4572,13.1724-20.1903,22.1042-29.5349
		c8.5564-8.9318,12.3093-24.5062,24.8438-28.7844C851.8845,412.513,783.2073,502.619,755.2109,529.3769z"/>
	<path d="M272.894,315.6519c17.676,2.702,30.3232-14.0732,37.0032-27.5835c6.0798-12.2343,15.687-43.0077,4.2783-53.966
		c-9.0818,1.5011-8.9319,8.8567-10.283,16.8127c-0.7129,4.0531-0.9756,6.7551-2.2141,10.6581
		c-4.5408,14.1858,0.3379,37.491-26.3826,42.2571c-16.9629,3.0398-26.0823-9.6448-30.248-23.7181
		c-3.4526-11.7839-0.1125-13.6229-1.3135-23.3427c-1.426-11.8591,3.04-12.7222,3.04-22.3295
		c-3.7529-2.4769-5.0288-3.4526-9.6826-3.6778c-7.3179,12.497-5.4041,41.5817-2.1016,55.6548
		C239.8691,307.2079,255.5186,312.9873,272.894,315.6519z"/>
	<path d="M424.9973,280.6377c1.3884-7.243,4.3157-20.7157,4.541-27.2082c0.6003-18.2764,0.3752-17.9011-14.4861-17.8636
		c-0.563,14.5986,2.4019,20.6032-2.6646,40.0805c-9.1943,35.2393-40.4182,31.4114-46.6855,2.3268
		c-5.2163-23.9057,4.6162-31.9743-2.7395-40.756c-9.9451,3.5276-7.0178,14.2233-8.4438,22.6672
		c-2.3645,14.2608-3.7153,4.5034,0.7129,26.3826C362.1746,320.6807,415.9529,328.0738,424.9973,280.6377z"/>
	<path d="M578.7517,588.9722c-7.2805,9.4197,7.6934,5.7043,16.5876,32.6499c1.9141,5.7793,1.7263,9.9451,7.8435,9.87
		C609.3,621.8472,589.2222,590.2856,578.7517,588.9722z"/>
	<path d="M210.6343,567.1306c-0.563-8.4439-1.5762-19.1771-5.4417-26.4201l-5.2166,2.3643c0,3.265,4.5786,16.7753,5.3667,21.8416
		c1.3135,8.2563-1.0132,19.1395,2.2893,26.2325c5.5542-1.4636,3.7527-3.8655,3.4526-8.444
		C210.7468,577.526,211.0095,572.5347,210.6343,567.1306z"/>
	<path d="M178.7725,497.4401c-2.5518-16.3625-0.3376-18.6142-8.2561-19.5524c-1.6887,6.7176,1.8013,10.8832,2.8896,18.4641
		c0.8257,5.5917,0.5254,15.912,3.0774,20.0402c4.916-0.4879,4.7285-1.8014,4.0906-6.53
		C180.011,505.9216,179.4106,501.4932,178.7725,497.4401z"/>
	<path d="M122.78,122.7927c-3.3401,5.2165-8.4441,7.0929-6.0422,13.3602c6.0046-0.5629,5.7043-4.9537,10.7708-9.87
		c7.5432-7.2805,7.1304-0.4128,11.5588-6.9428l-2.6646-5.0288C128.8972,114.1611,126.3076,117.2009,122.78,122.7927z"/>
	<path d="M194.1968,627.6641c2.064-4.8411-0.3379-31.2612-3.0774-35.4644c-7.5432,0.4878-2.9272,14.6736-0.8254,26.6827
		C191.157,623.7236,190.5566,625.9753,194.1968,627.6641z"/>
	<path d="M192.4331,663.1661c-4.1658,0.2252-2.1768-0.6005-5.1792,2.8522c0.2627,3.8655,2.4019,11.7465,3.3401,15.9497
		c1.0884,4.9161,0.6006,13.0223,4.8413,15.3115C197.762,692.8137,195.135,667.9323,192.4331,663.1661z"/>
	<path d="M51.5884,189.7061c-2.6646,4.8036-10.6206,14.2609-0.7881,14.486c1.426-1.8014,3.9404-10.2828,6.7925-14.9363
		c3.5278-5.7043,10.3579-7.1304,5.4419-12.1968C57.6304,176.5336,54.2529,184.8273,51.5884,189.7061z"/>
	<path d="M566.48,640.1611c-4.4285,4.7661,1.426,14.6362,5.5542,24.1685c2.2517,5.179,0.8257,4.7661,6.1921,4.3157
		C578.7517,663.4288,571.1335,641.8499,566.48,640.1611z"/>
	<path d="M468.2678,629.7283l-2.8147,3.2274c1.2009,4.7286,5.3291,8.4814,8.031,13.6603
		c3.0024,5.6294,3.9407,11.5588,10.4329,7.7686C482.9038,649.2056,472.7336,632.3928,468.2678,629.7283z"/>
	<path d="M483.917,123.806c4.4661,3.4526,6.23,7.0554,11.2212,4.8787c2.8896-5.7043-1.0508-6.6425-5.7043-10.2828
		c-3.1899-2.4769-7.5056-8.0687-11.3711-4.1657C473.1465,119.1149,480.6521,121.2916,483.917,123.806z"/>
	<path d="M502.3438,612.0148c0.4126-6.0421-8.1814-20.6783-12.6472-24.9564l-3.5276,2.064
		C486.3188,591.4116,493.5996,612.0522,502.3438,612.0148z"/>
	<path d="M406.1956,588.5969c-1.8765-6.3799-2.8523-13.1725-9.5322-13.5103c-2.2141,5.6293,1.6511,7.8059,3.7527,14.3734
		c1.6514,5.1415,3.3027,9.4948,7.6184,13.2476C411.9749,598.1292,408.2971,595.6147,406.1956,588.5969z"/>
	<path d="M173.406,136.1528c4.3533-10.8082-18.0513-20.3405-20.303-10.3578c3.3774,4.053,5.0288,1.6512,10.3203,4.9537
		C168.5649,133.9011,166.9885,135.9652,173.406,136.1528z"/>
	<path d="M437.7195,585.7448c-5.2539,4.9913-2.552,8.1062-0.2627,14.411c1.7263,4.8036,3.1899,11.4836,5.7795,15.4993
		c6.1921-2.4019,2.4016-8.6692,0.4502-14.1482C441.8477,596.2527,440.459,590.2856,437.7195,585.7448z"/>
	<path d="M95.3843,135.3272c-8.6318-5.7043-21.2036,21.3538-18.6519,26.1949c4.4658-1.276,6.2673-9.3821,9.0068-13.773
		C88.4414,143.3583,95.4592,139.7556,95.3843,135.3272z"/>
	<path d="M274.5454,619.2202c-3.7153,6.4548,3.7529,22.8549,9.6074,27.5459c2.8521-4.8411-0.9385-8.6691-2.6272-14.7861
		C279.9495,626.0504,280.6626,619.9707,274.5454,619.2202z"/>
	<path d="M365.8149,626.9886c-5.4043,7.1305,6.1921,26.1573,10.3203,27.696c2.4392-4.2407-1.6138-9.4948-3.4902-14.411
		C370.4309,634.4944,371.1438,629.5781,365.8149,626.9886z"/>
	<path d="M234.8027,540.8607c0.9756,4.4283,1.7637,14.1857,4.541,16.7752c3.6401-5.9295,1.1257-24.9565-3.9031-30.1354
		C229.2109,530.2401,233.3015,534.1805,234.8027,540.8607z"/>
	<path d="M324.2708,643.8389l-3.0022,2.6646c0.1125,3.3025,4.8035,24.9189,6.2295,27.2833
		c5.7046-4.0155,2.4395-8.0311,1.2385-14.0732C327.498,653.4463,328.4739,649.168,324.2708,643.8389z"/>
	<path d="M538.7463,582.7424l-4.6536,2.9272c1.3135,4.4285,10.9958,16.55,15.0864,17.6384
		C550.9431,597.7915,543.7002,584.9567,538.7463,582.7424z"/>
	<path d="M244.6726,594.6016c-4.1282,3.8654-1.9514,8.2937-1.0508,14.9363c2.1392,15.2742-1.0508,14.7112,3.4526,16.8127
		C248.4255,624.0239,250.9399,598.8423,244.6726,594.6016z"/>
	<path d="M606.7856,674.6499c1.1257,4.541,1.2759,11.7089,5.2915,13.5479c2.2141-4.8788,0.9006-20.3406-1.3135-25.1816
		C602.4697,662.9409,605.0967,667.8948,606.7856,674.6499z"/>
	<path d="M215.2129,642.9008c1.3884,4.6534,1.4634,13.7729,3.49,16.7377c5.3667-4.3533,2.3645-22.3669-1.3135-27.5835
		C209.5835,634.3066,213.5615,637.309,215.2129,642.9008z"/>
	<path d="M380.3384,161.5596c5.0288-1.7638,15.2742-21.6539,12.0842-27.4709C387.0186,136.0403,380.0005,155.6301,380.3384,161.5596
		z"/>
	<path d="M465.4155,138.4796c3.7529,4.1281,5.4792,7.6934,11.2961,5.5917c-0.1125-4.8787-11.8591-17.7885-16.8503-15.8746
		C457.3469,133.4883,461.0623,133.7135,465.4155,138.4796z"/>
	<path d="M335.9045,592.6875c-1.6138,5.5167,3.0398,24.0183,6.6802,28.2966c3.3774-3.4152,0.3-8.3314-0.1501-13.7731
		C341.7966,599.8931,343.2227,593.8135,335.9045,592.6875z"/>
	<path d="M245.3857,494.6255c-0.6006,2.8146,3.0774,25.5194,9.4197,27.1707c1.6138-2.8146-1.0134-10.1702-2.0266-14.6362
		C251.2402,500.1046,251.8782,495.9765,245.3857,494.6255z"/>
	<path d="M444.8875,108.4943c5.967,1.3885,7.4307,3.8654,9.8699-2.0641c-3.6025-2.9648-24.6563-11.146-21.9541,0
		C436.1809,108.0815,440.3091,107.481,444.8875,108.4943z"/>
	<path d="M314.2131,552.7572c2.4768-5.4041,0.3-25.0691-6.4924-26.4576c-2.2517,4.2032,1.1257,12.1217,2.8896,21.4288
		C311.5486,552.6446,310.873,551.4812,314.2131,552.7572z"/>
	<path d="M67.9507,213.274c6.6802-0.6755,6.0796-6.7927,8.8569-12.4595c2.5894-5.254,6.2671-7.9936,2.4768-12.4219
		C73.1672,192.6333,68.176,205.9935,67.9507,213.274z"/>
	<path d="M348.5894,575.4244c0.9004,3.978,2.3643,11.7089,5.5916,13.4352c3.6404-4.9537-0.6379-21.2411-4.3157-26.2324
		C345.3994,566.9805,347.2756,569.5699,348.5894,575.4244z"/>
	<path d="M194.6472,719.9093c1.0881,5.2915,4.053,20.5281,8.2937,22.4796c2.2144-5.0288-0.4128-20.7908-4.541-25.2942
		L194.6472,719.9093z"/>
	<path d="M305.7317,710.9775c-1.7263,4.5034,1.7639,7.2805,3.3025,12.4595c1.8013,6.1921,0.4878,9.0818,7.3179,8.5189
		c-0.3376-3.6779-2.1765-8.8942-3.1147-12.9474C311.8113,712.7413,311.999,708.8008,305.7317,710.9775z"/>
	<path d="M206.9189,506.3719c2.5144-5.5542,0.4504-5.967-0.6755-11.9341c-1.2759-6.7551,1.5762-8.519-4.3533-11.8215
		C197.4993,487.1573,200.4265,504.4579,206.9189,506.3719z"/>
	<path d="M170.1411,161.4846c4.5034,5.0288,1.2383,5.967,7.2429,7.0178c4.1658-7.0554-4.3533-14.7112-9.9075-17.6384
		c-2.1016,1.6512-2.5146,1.6888-3.6777,4.616C165.8252,157.8068,168.2271,159.3455,170.1411,161.4846z"/>
	<path d="M94.9338,159.4581c-3.3025,4.7661-4.7661,8.3688-1.426,12.5721c5.3665-2.8897,2.4768-5.179,6.3423-10.2078
		c3.9028-5.0664,6.6426-3.1149,6.0796-9.7199C100.5256,151.6521,98.0486,154.8796,94.9338,159.4581z"/>
	<path d="M501.4805,648.7551c-1.7637,4.2032,4.0906,20.5281,10.3203,22.1044C512.6265,667.707,509.2114,649.5057,501.4805,648.7551z
		"/>
	<path d="M497.4648,703.4718c-5.2539,3.978-3.7903,22.9674,2.7773,24.8815c1.8013-5.3667-0.1128-6.9053-0.3003-12.6847
		C499.7917,710.4521,501.4429,706.6617,497.4648,703.4718z"/>
	<path d="M280.0996,584.7314c0.9006-6.5299-3.5276-14.1482-5.479-20.6406c-6.8679,2.1766-5.1792,4.1656-2.5896,10.4705
		C274.4702,580.4908,274.1326,585.1819,280.0996,584.7314z"/>
	<path d="M377.4487,585.1443c1.3135,4.7661,6.8301,19.027,11.1833,20.303c0.7131-5.8921-3.5652-19.2146-7.7307-23.4554
		L377.4487,585.1443z"/>
	<path d="M596.2776,720.2095c0.8257-5.7793-1.989-17.4132-4.7661-22.2168C580.9658,698.8933,593.0127,719.1212,596.2776,720.2095z"
		/>
	<path d="M313.1248,595.8774c-3.3401,5.1039-1.8015,6.605-0.0376,12.4595c1.5762,5.3291,0.5254,8.5565,4.9539,10.0952
		C320.8931,614.0413,318.1536,597.8665,313.1248,595.8774z"/>
	<path d="M591.0986,743.5148c0.9382,6.4174-0.7881,9.307,5.4417,10.4705c1.8015-3.8655-0.4128-18.0138-3.6028-21.3538
		C588.209,734.8832,590.198,737.7354,591.0986,743.5148z"/>
	<path d="M409.6855,629.4656c-2.7019,4.9163,3.978,19.4773,10.0203,20.0027C420.3438,644.627,414.752,630.8916,409.6855,629.4656z"
		/>
	<path d="M425.6353,122.2297l2.2144-4.0156c-6.1924-3.0398-16.8503-5.254-17.676,3.4526
		C412.3877,122.8677,422.4453,122.4924,425.6353,122.2297z"/>
	<path d="M175.7327,191.2823c0.9382-5.5543-2.1765-13.773-7.3931-16.325l-3.3025,3.0399
		C165.2622,178.485,170.0659,191.0196,175.7327,191.2823z"/>
	<path d="M525.5361,620.9465c-2.9646,5.4417,0.3379,4.4658,3.6404,10.0576c2.8523,4.8037,2.2517,7.8059,7.2805,6.1172
		C536.7949,634.1941,530.8652,620.1584,525.5361,620.9465z"/>
	<path d="M404.8445,160.9967c1.6138-4.7661,3.2275-6.1922-0.3003-9.3071c-4.4282,1.989-6.5674,12.7597-6.6423,17.826
		C403.9814,168.8027,402.7429,167.1139,404.8445,160.9967z"/>
</g>
</svg>
